<svg xmlns="http://www.w3.org/2000/svg" viewBox="0 0 64 64" fill="none">
  <!-- rocket body -->
  <path d="M32 6 C32 6 42 14 42 30 L42 40 L32 46 L22 40 L22 30 C22 14 32 6 32 6Z" fill="#00d4ff" opacity="0.2" stroke="#00d4ff" stroke-width="2"/>
  <!-- nose cone -->
  <path d="M32 6 C32 6 38 14 38 22 L26 22 C26 14 32 6 32 6Z" fill="#00d4ff" opacity="0.5"/>
  <!-- window -->
  <circle cx="32" cy="28" r="5" fill="#0d1b2a" stroke="#00d4ff" stroke-width="1.5"/>
  <circle cx="32" cy="28" r="2" fill="#00d4ff" opacity="0.6"/>
  <!-- fins left -->
  <path d="M22 38 L14 48 L22 44Z" fill="#00d4ff" opacity="0.6"/>
  <!-- fins right -->
  <path d="M42 38 L50 48 L42 44Z" fill="#00d4ff" opacity="0.6"/>
  <!-- flame -->
  <path d="M26 44 C26 44 29 52 32 54 C35 52 38 44 38 44" stroke="#ff6b35" stroke-width="2.5" stroke-linecap="round" fill="none"/>
  <path d="M28 44 C28 44 30 50 32 51.5 C34 50 36 44 36 44" stroke="#f59e0b" stroke-width="2" stroke-linecap="round" fill="none"/>
</svg>
